# xmcd
#
# Track frame offsets:
#	150
#	17407
#	32363
#	46163
#	61494
#	75140
#	93745
#	109647
#	121252
#	140308
#	157533
#	171114
#	184099
#	197763
#	212547
#
# Disc length: 3124 seconds
#
# Revision: 1
# Processed by: cddbd v1.5.2PL0 Copyright (c) Steve Scherf et al.
# Submitted via: audiograbber 1.83.01
#
DISCID=ab0c320f
DTITLE=CALIMEROS - Das Feuer brennt noch immer
DYEAR=2007
DGENRE=Schlager
TTITLE0=Das Feuer brennt noch immer
TTITLE1=Die weissen Nächte von St.Petersburg
TTITLE2=Wo sind die Sterne der Nacht
TTITLE3=Das tut gut
TTITLE4=War es nur ein Sommerflirt
TTITLE5=Helena
TTITLE6=San Francisco Angel
TTITLE7=Ramona
TTITLE8=Danke für die schönen Jahre
TTITLE9=Ich kann nicht sein ohne Liebe von dir
TTITLE10=Alle Träume schenk ich dir
TTITLE11=Ich hab genug von deinen Lügen
TTITLE12=Mi Amor
TTITLE13=Sehnsucht aus Liebe
TTITLE14=Du bist wie die Sterne so schön
EXTD=
EXTT0=
EXTT1=
EXTT2=
EXTT3=
EXTT4=
EXTT5=
EXTT6=
EXTT7=
EXTT8=
EXTT9=
EXTT10=
EXTT11=
EXTT12=
EXTT13=
EXTT14=
PLAYORDER=
